<svg id="Layer_2" data-name="Layer 2" xmlns="http://www.w3.org/2000/svg" width="25" height="23" viewBox="0 0 25 23">
  <g id="invisible_box" data-name="invisible box">
    <rect id="Rectángulo_996" data-name="Rectángulo 996" width="25" height="23" fill="none"/>
  </g>
  <g id="Q3_icons" data-name="Q3 icons" transform="translate(2.199 0.928)">
    <g id="Grupo_1645" data-name="Grupo 1645">
      <path id="Trazado_724" data-name="Trazado 724" d="M12.71,3,2,9.816V22.474a.974.974,0,0,0,.974.974H22.447a.974.974,0,0,0,.974-.974V9.816Zm8.763,18.5H3.947V12.98l2.434,1.363V12.1L4.093,10.789l8.617-5.5,8.617,5.5L19.039,12.1v2.239l2.434-1.363Z" transform="translate(-2 -3)" fill="#fff"/>
      <path id="Trazado_725" data-name="Trazado 725" d="M22.98,20.3H21.714l-.146-.584a2.142,2.142,0,0,0,1.655-2.093v-.487a.73.73,0,1,0-1.461,0v.487a.73.73,0,0,1-.73.73h-.195l-.438-.438h0a2.191,2.191,0,0,0,.389-1.266,2.337,2.337,0,0,0-.682-1.7.682.682,0,0,1,.682-.487.73.73,0,0,0,0-1.461,2.288,2.288,0,0,0-2,1.266h-.876a2.288,2.288,0,0,0-2-1.266.73.73,0,0,0,0,1.461.682.682,0,0,1,.682.487,2.337,2.337,0,0,0-.682,1.7,2.191,2.191,0,0,0,.389,1.266h0l-.438.438h-.195a.73.73,0,0,1-.73-.73v-.487a.73.73,0,0,0-1.461,0v.487a2.142,2.142,0,0,0,1.655,2.093L15,20.3H13.73a.73.73,0,1,0,0,1.461H15l.146.584a2.142,2.142,0,0,0-1.655,2.093v.487a.73.73,0,0,0,1.461,0v-.487a.73.73,0,0,1,.73-.73h.195a3.141,3.141,0,0,0,4.966,0h.195a.73.73,0,0,1,.73.73v.487a.73.73,0,1,0,1.461,0v-.487a2.142,2.142,0,0,0-1.655-2.093l.146-.584H22.98a.73.73,0,1,0,0-1.461Zm-5.355,2.97a2.434,2.434,0,0,1-1.217-2.239,2.434,2.434,0,0,1,1.217-2.239Zm-.049-6.037h0a1.217,1.217,0,0,1-.195-.584.974.974,0,0,1,1.947,0,1.217,1.217,0,0,1-.195.584h0l-.779-.1Zm1.509,6.037V18.793A2.434,2.434,0,0,1,20.3,21.033,2.434,2.434,0,0,1,19.085,23.272Z" transform="translate(-7.645 -8.132)" fill="#fff"/>
    </g>
  </g>
</svg>
