<svg id="icons_Q2" data-name="icons Q2" xmlns="http://www.w3.org/2000/svg" width="19.343" height="19.336" viewBox="0 0 19.343 19.336">
  <path id="Trazado_788" data-name="Trazado 788" d="M6.716,22.336h-1.8A.921.921,0,0,1,4,21.415V3.921A.921.921,0,0,1,4.921,3H19.653a.921.921,0,0,1,.921.921V7.558a.967.967,0,0,1-.783.967A.921.921,0,0,1,18.732,7.6V4.842H5.842V20.494h.921a.921.921,0,0,1,.921,1.059.967.967,0,0,1-.967.783Z" transform="translate(-4 -3)" fill="#6f6cf9"/>
  <rect id="Rectángulo_1158" data-name="Rectángulo 1158" width="8" height="2" rx="1" transform="translate(4.158 4.619)" fill="#6f6cf9"/>
  <path id="Trazado_789" data-name="Trazado 789" d="M27.916,21.78,23.4,17.268a.875.875,0,0,0-1.289,0L20.09,19.294H13.921a.921.921,0,1,0,0,1.842h4.328l-1.842,1.842H13.921a.921.921,0,0,0,0,1.842H15.3v4.143a.921.921,0,0,0,.921.921h4.512a.921.921,0,0,0,.645-.276l6.537-6.537a.875.875,0,0,0,0-1.289Zm-7.6,6.261H17.143V24.864l2.946-2.946,3.177,3.177Zm4.235-4.235-3.177-3.177L22.76,19.2l3.223,3.223Z" transform="translate(-8.857 -10.546)" fill="#6f6cf9"/>
</svg>
