<svg id="Layer_2" data-name="Layer 2" xmlns="http://www.w3.org/2000/svg" width="23" height="23" viewBox="0 0 23 23">
  <g id="invisible_box" data-name="invisible box">
    <rect id="Rectángulo_42" data-name="Rectángulo 42" width="23" height="23" fill="none"/>
    <rect id="Rectángulo_43" data-name="Rectángulo 43" width="23" height="23" fill="none"/>
    <rect id="Rectángulo_1161" data-name="Rectángulo 1161" width="23" height="23" fill="none"/>
  </g>
  <g id="icons_Q2" data-name="icons Q2" transform="translate(4.82 4.84)">
    <path id="Trazado_19" data-name="Trazado 19" d="M27.4,16.776l-5.13,5.13a.92.92,0,0,0,.1,1.452,1.016,1.016,0,0,0,1.307-.1l5.759-5.808a.92.92,0,0,0,0-1.355l-5.759-5.808a1.016,1.016,0,0,0-1.307-.1.92.92,0,0,0-.1,1.452Z" transform="translate(-16.151 -10.001)" fill="#fff"/>
    <path id="Trazado_20" data-name="Trazado 20" d="M15.4,16.776l-5.13,5.13a.92.92,0,0,0,.1,1.452,1.016,1.016,0,0,0,1.307-.1l5.759-5.808a.92.92,0,0,0,0-1.355l-5.759-5.808a1.016,1.016,0,0,0-1.307-.1.92.92,0,0,0-.1,1.452Z" transform="translate(-9.959 -10.001)" fill="#fff"/>
  </g>
</svg>
