<svg xmlns="http://www.w3.org/2000/svg" width="24.388" height="21.333" viewBox="0 0 24.388 21.333">
  <g id="Grupo_1773" data-name="Grupo 1773" transform="translate(-517.806 -157.264)">
    <path id="Trazado_795" data-name="Trazado 795" d="M.241,10.791l2.816,2.776a.764.764,0,0,0,1.127,0L7,10.791a.845.845,0,0,0,.08-1.086.764.764,0,0,0-1.207-.08L4.425,11.073,4.37.8A.8.8,0,1,0,2.761.8l.055,10.268L1.368,9.625a.764.764,0,0,0-1.207.08A.845.845,0,0,0,.241,10.791Z" transform="translate(533.619 178.598) rotate(180)" fill="#6966f1"/>
    <path id="Trazado_796" data-name="Trazado 796" d="M23.334,15.2a5.043,5.043,0,0,0-1.884-3.6,5.431,5.431,0,0,0-4.156-1.275A6.816,6.816,0,0,0,11.642,7,6.428,6.428,0,0,0,6.765,9.217a6.871,6.871,0,0,0-1.773,4.655,6.539,6.539,0,0,0-2.882,4.544,6.373,6.373,0,0,0,1.718,5.652A6.871,6.871,0,0,0,8.65,25.841H9.758a1.108,1.108,0,0,0,1.108-1.108h0a1.108,1.108,0,0,0-1.108-1.108H8.65A4.378,4.378,0,0,1,5.38,22.461a4.212,4.212,0,0,1-1.108-3.713,4.045,4.045,0,0,1,.831-1.94,4.489,4.489,0,0,1,1.5-1.385,1,1,0,0,0,.61-1.053h0a5.043,5.043,0,0,1,1.219-3.657,4.267,4.267,0,0,1,3.214-1.5,4.045,4.045,0,0,1,2.494.887,4.876,4.876,0,0,1,1.552,1.884,1.108,1.108,0,0,0,1,.665h.277a3.6,3.6,0,0,1,3.159.72,3.325,3.325,0,0,1,1,2.438v.222a.887.887,0,0,0,.665.942h.111A3.436,3.436,0,0,1,24.166,20.3c0,.332-.222,3.325-4.156,3.325H18.624a1.108,1.108,0,0,0-1.108,1.108h0a1.108,1.108,0,0,0,1.108,1.108h1.385c4.267,0,6.262-2.826,6.373-5.486A5.486,5.486,0,0,0,23.334,15.2Z" transform="translate(515.807 150.264)" fill="#6966f1"/>
  </g>
</svg>
