<svg xmlns="http://www.w3.org/2000/svg" width="20.778" height="20.778" viewBox="0 0 20.778 20.778">
  <g id="Grupo_1735" data-name="Grupo 1735" transform="translate(-376 -473.278)">
    <path id="Trazado_682" data-name="Trazado 682" d="M12.389,2a10.342,10.342,0,1,0,7.36,3.029A10.389,10.389,0,0,0,12.389,2Zm0,18.889a8.5,8.5,0,1,1,8.5-8.5A8.5,8.5,0,0,1,12.389,20.889Z" transform="translate(374 471.278)" fill="#504dcd"/>
    <path id="Trazado_683" data-name="Trazado 683" d="M18.233,16.864a3.447,3.447,0,0,0,.378-1.558,3.306,3.306,0,1,0-3.306,3.306,3.447,3.447,0,0,0,1.558-.378l1.369,1.322-1.228,1.228a.935.935,0,1,0,1.322,1.322l1.228-1.228.567.567-1.228,1.228a.935.935,0,1,0,1.322,1.322l1.889-1.889a.9.9,0,0,0,0-1.322Zm-4.344-1.558a1.417,1.417,0,1,1,1.417,1.417,1.369,1.369,0,0,1-1.417-1.417Z" transform="translate(369.191 466)" fill="#504dcd"/>
  </g>
</svg>
