<svg id="Layer_2" data-name="Layer 2" xmlns="http://www.w3.org/2000/svg" width="19" height="19" viewBox="0 0 19 19">
  <g id="invisible_box" data-name="invisible box">
    <rect id="Rectángulo_1004" data-name="Rectángulo 1004" width="19" height="19" fill="none"/>
  </g>
  <g id="icons_Q2" data-name="icons Q2" transform="translate(1.979 1.188)">
    <g id="Grupo_1736" data-name="Grupo 1736">
      <path id="Trazado_731" data-name="Trazado 731" d="M20.041,5.3a.91.91,0,0,1-.237.633.673.673,0,0,1-.554.238H14.5a.792.792,0,0,1-.792-.792V4.583H11.333v.792a.792.792,0,0,1-.792.792H5.831A.831.831,0,0,1,5,5.454a.91.91,0,0,1,.238-.633.673.673,0,0,1,.554-.238H9.75V3.792A.792.792,0,0,1,10.541,3H14.5a.792.792,0,0,1,.792.792v.792H19.21a.831.831,0,0,1,.831.713Z" transform="translate(-4.999 -3)" fill="#5f5ce3"/>
      <path id="Trazado_732" data-name="Trazado 732" d="M19.327,15.712l-.95,9.579h-6.65l-.95-9.579A.792.792,0,0,0,9.986,15h0a.792.792,0,0,0-.792.871l1.029,10.292a.792.792,0,0,0,.792.712H19.09a.792.792,0,0,0,.792-.712l1.029-10.292A.792.792,0,0,0,20.119,15h0A.792.792,0,0,0,19.327,15.712Z" transform="translate(-7.531 -10.25)" fill="#5f5ce3"/>
    </g>
  </g>
</svg>
