<svg xmlns="http://www.w3.org/2000/svg" width="9.833" height="18.028" viewBox="0 0 9.833 18.028">
  <path id="Trazado_784" data-name="Trazado 784" d="M16.917,20.028A4.917,4.917,0,0,1,12,15.111V11.424a2.868,2.868,0,1,1,5.736,0v3.687a.819.819,0,1,1-1.639,0V11.424a1.229,1.229,0,0,0-1.229-1.229,1.27,1.27,0,0,0-1.229,1.229v3.687a3.278,3.278,0,1,0,6.556,0V6.917a3.278,3.278,0,0,0-6.556,0,.819.819,0,1,1-1.639,0,4.917,4.917,0,1,1,9.833,0v8.194A4.917,4.917,0,0,1,16.917,20.028Z" transform="translate(-12 -2)" fill="#2d29af"/>
</svg>
