<svg id="Layer_2" data-name="Layer 2" xmlns="http://www.w3.org/2000/svg" width="16" height="16" viewBox="0 0 16 16">
  <g id="invisible_box" data-name="invisible box">
    <rect id="Rectángulo_977" data-name="Rectángulo 977" width="16" height="16" fill="none"/>
  </g>
  <g id="icons_Q2" data-name="icons Q2" transform="translate(1.264 1.264)">
    <path id="Trazado_690" data-name="Trazado 690" d="M15.941,5.264H9.591A1.959,1.959,0,0,0,7.791,4,1.9,1.9,0,0,0,6.022,5.264H4.695A.663.663,0,0,0,4,5.9a.663.663,0,0,0,.695.632H6.022A1.9,1.9,0,0,0,7.791,7.791a1.959,1.959,0,0,0,1.8-1.264h6.35a.663.663,0,0,0,.695-.632.663.663,0,0,0-.695-.632ZM7.791,6.527A.632.632,0,1,1,8.423,5.9.632.632,0,0,1,7.791,6.527Z" transform="translate(-4 -4)" fill="#6e6bf7"/>
    <path id="Trazado_691" data-name="Trazado 691" d="M16.078,19.264h-1.3A1.959,1.959,0,0,0,12.982,18a1.9,1.9,0,0,0-1.769,1.264H4.832a.632.632,0,1,0,0,1.264h6.381a1.9,1.9,0,0,0,1.769,1.264,1.959,1.959,0,0,0,1.8-1.264h1.3a.632.632,0,1,0,0-1.264Zm-3.1,1.264a.632.632,0,1,1,.632-.632A.632.632,0,0,1,12.982,20.527Z" transform="translate(-4.137 -13.577)" fill="#6e6bf7"/>
    <path id="Trazado_692" data-name="Trazado 692" d="M16.078,33.264h-5.4A1.959,1.959,0,0,0,8.875,32a1.9,1.9,0,0,0-1.769,1.264H4.832a.632.632,0,1,0,0,1.264H7.106a1.9,1.9,0,0,0,1.769,1.264,1.959,1.959,0,0,0,1.8-1.264h5.4a.632.632,0,1,0,0-1.264Zm-7.2,1.264a.632.632,0,1,1,.632-.632A.632.632,0,0,1,8.875,34.527Z" transform="translate(-4.137 -23.155)" fill="#6e6bf7"/>
  </g>
</svg>
