<svg xmlns="http://www.w3.org/2000/svg" xmlns:xlink="http://www.w3.org/1999/xlink" width="50.672" height="50.672" viewBox="0 0 50.672 50.672">
  <defs>
    <clipPath id="clip-path">
      <rect id="Rectángulo_70" data-name="Rectángulo 70" width="50.672" height="50.672" rx="8" transform="translate(0 0)" fill="#fff"/>
    </clipPath>
  </defs>
  <g id="Grupo_13" data-name="Grupo 13" clip-path="url(#clip-path)">
    <path id="Trazado_23" data-name="Trazado 23" d="M27.04,42.747q4.421,0,6.12-4.421l4.239,1.6a10.2,10.2,0,0,1-4.025,5.014,11.8,11.8,0,0,1-6.334,1.633,13.185,13.185,0,0,1-6.351-1.419,9.591,9.591,0,0,1-4.008-4.14,14.249,14.249,0,0,1-1.369-6.5,14.356,14.356,0,0,1,1.32-6.466,8.972,8.972,0,0,1,3.893-4.008,13.145,13.145,0,0,1,6.3-1.386,12.162,12.162,0,0,1,6.664,1.65A8.664,8.664,0,0,1,37.1,29.122l-4.289,1.171a4.959,4.959,0,0,0-2.144-2.771,6.67,6.67,0,0,0-3.744-1.039,6.174,6.174,0,0,0-5.014,2.045,9.167,9.167,0,0,0-1.7,5.988,11.56,11.56,0,0,0,.775,4.5A6,6,0,0,0,23.3,41.807,7.037,7.037,0,0,0,27.04,42.747Z" transform="translate(-1.259 -10.351)" fill="#fff"/>
    <path id="Trazado_24" data-name="Trazado 24" d="M27,18.434c5.6,1.583,11.718,3.484,14.779,4.539V39.547c0,3.589-3.906,9.923-14.779,16.257-10.873-6.44-14.779-12.668-14.779-16.257V22.973C15.284,21.812,21.407,20.017,27,18.434ZM27,14S8,19.384,8,20.334V39.547C8,49.259,22.04,57.81,25.946,60.133a1.9,1.9,0,0,0,2.111,0C32.069,57.916,46,49.259,46,39.547V20.334C46,19.384,27,14,27,14Z" transform="translate(-1.666 -10.833)" fill="#fff"/>
    <path id="Trazado_25" data-name="Trazado 25" d="M29.115,42.418l-2.187-6.95H29.75a.678.678,0,0,0,.387-.129.74.74,0,0,0,.256-.333.789.789,0,0,0,.04-.427.763.763,0,0,0-.189-.38l-6.278-9.043a.37.37,0,0,0-.635.374l2.187,6.95H22.7a.678.678,0,0,0-.387.129.74.74,0,0,0-.256.333.789.789,0,0,0-.04.427.763.763,0,0,0,.189.38l6.278,9.043A.37.37,0,0,0,29.115,42.418Z" transform="translate(-0.887 -10.221)" fill="#fff"/>
  </g>
</svg>
