<svg id="Layer_2" data-name="Layer 2" xmlns="http://www.w3.org/2000/svg" width="24" height="24" viewBox="0 0 24 24">
  <g id="invisible_box" data-name="invisible box">
    <rect id="Rectángulo_82" data-name="Rectángulo 82" width="24" height="24" fill="none"/>
  </g>
  <g id="icons_Q2" data-name="icons Q2" transform="translate(2 1)">
    <path id="Trazado_26" data-name="Trazado 26" d="M23.7,15.7l-1.6-1.6a2.25,2.25,0,0,1-.6-1.45V9.5A7.16,7.16,0,0,0,14,2C9.2,2,6.5,5.35,6.5,9.5V13a1.3,1.3,0,0,1-.35.85L4.3,15.7a1,1,0,0,0-.3.7V20a1,1,0,0,0,1,1h5.55a3.5,3.5,0,0,0,6.9,0H23a1,1,0,0,0,1-1V16.4A1,1,0,0,0,23.7,15.7ZM22,19H6V16.85l1.55-1.6A3.2,3.2,0,0,0,8.5,13V9.5C8.5,6.85,9.95,4,14,4s5.5,2.95,5.5,5.5v3.15a4.3,4.3,0,0,0,1.15,2.85L22,16.85Z" transform="translate(-4 -2)"/>
  </g>
</svg>
