<svg xmlns="http://www.w3.org/2000/svg" width="21" height="21" viewBox="0 0 21 21">
  <g id="Layer_2" data-name="Layer 2" opacity="0.34">
    <g id="invisible_box" data-name="invisible box">
      <rect id="Rectángulo_976" data-name="Rectángulo 976" width="21" height="21" fill="none"/>
    </g>
    <g id="icons_Q2" data-name="icons Q2" transform="translate(0.875 0.875)">
      <path id="Trazado_687" data-name="Trazado 687" d="M11.625,2a9.581,9.581,0,1,0,6.819,2.806A9.625,9.625,0,0,0,11.625,2Zm0,17.5A7.875,7.875,0,1,1,19.5,11.625,7.875,7.875,0,0,1,11.625,19.5Z" transform="translate(-2 -2)"/>
      <path id="Trazado_688" data-name="Trazado 688" d="M22.875,35.785H22.7l-.175-.087h-.131l-.131-.131-.131-.131c0-.044-.044-.088-.087-.131s0-.131-.044-.175v-.35c.044-.044.044-.088.044-.175s.087-.088.087-.131l.131-.131a.831.831,0,0,1,.787-.262h.175l.131.088.131.131.131.131c0,.044.044.088.044.131a.332.332,0,0,0,.087.175v.35c-.044.044-.044.088-.087.175s-.044.087-.044.131l-.131.131-.131.131h-.131l-.175.088Z" transform="translate(-13.25 -20.035)"/>
      <path id="Trazado_689" data-name="Trazado 689" d="M19.113,18.757h-.35a.875.875,0,0,1-.481-1.138,3.194,3.194,0,0,1,1.575-1.706,2.144,2.144,0,0,0-.481-4.112,2.155,2.155,0,0,0-2.625,2.1.875.875,0,0,1-1.75,0,3.966,3.966,0,0,1,4.725-3.806,3.894,3.894,0,0,1,.875,7.35,1.619,1.619,0,0,0-.7.744A.831.831,0,0,1,19.113,18.757Z" transform="translate(-9.313 -6.507)"/>
    </g>
  </g>
</svg>
