<svg id="icons_Q2" data-name="icons Q2" xmlns="http://www.w3.org/2000/svg" width="48.583" height="35.336" viewBox="0 0 48.583 35.336">
  <g id="Grupo_1635" data-name="Grupo 1635">
    <path id="Trazado_677" data-name="Trazado 677" d="M48.375,8H4.208A2.208,2.208,0,0,0,2,10.208V25.667a2.208,2.208,0,0,0,2.54,2.208,2.319,2.319,0,0,0,1.877-2.319V12.417h39.75v26.5H35.125a2.208,2.208,0,0,0-2.208,2.54,2.319,2.319,0,0,0,2.319,1.877h13.14a2.208,2.208,0,0,0,2.208-2.208V10.208A2.208,2.208,0,0,0,48.375,8Z" transform="translate(-2 -8)" fill="#d9d9d9"/>
    <path id="Trazado_678" data-name="Trazado 678" d="M2,32.417v6.625A2.319,2.319,0,0,0,4.429,41.25H26.071A2.319,2.319,0,0,0,28.5,39.042V32.417A22.635,22.635,0,0,0,15.25,28,22.635,22.635,0,0,0,2,32.417Zm22.083,4.417H6.417V34.846a17.225,17.225,0,0,1,17.667,0Z" transform="translate(-2 -5.917)" fill="#d9d9d9"/>
    <path id="Trazado_679" data-name="Trazado 679" d="M28.208,20.417H39.25a2.208,2.208,0,0,0,0-4.417H28.208a2.208,2.208,0,1,0,0,4.417Z" transform="translate(0.5 -7.167)" fill="#d9d9d9"/>
    <path id="Trazado_680" data-name="Trazado 680" d="M41.458,26.208A2.208,2.208,0,0,0,39.25,24H28.208a2.208,2.208,0,1,0,0,4.417H39.25A2.208,2.208,0,0,0,41.458,26.208Z" transform="translate(0.5 -6.333)" fill="#d9d9d9"/>
    <path id="Trazado_681" data-name="Trazado 681" d="M21.25,20.625a6.625,6.625,0,1,0-6.625,6.625A6.625,6.625,0,0,0,21.25,20.625Zm-8.833,0a2.208,2.208,0,1,1,2.208,2.208A2.208,2.208,0,0,1,12.417,20.625Z" transform="translate(-1.375 -7.375)" fill="#d9d9d9"/>
  </g>
</svg>
